<?xml version="1.0" encoding="UTF-8" standalone="no"?>
<!-- Created with Inkscape (http://www.inkscape.org/) -->

<svg
   width="7.4108582mm"
   height="5.3040161mm"
   viewBox="0 0 7.4108582 5.3040161"
   version="1.1"
   id="svg5"
   xml:space="preserve"
   inkscape:version="1.2.2 (732a01da63, 2022-12-09)"
   xmlns:inkscape="http://www.inkscape.org/namespaces/inkscape"
   xmlns:sodipodi="http://sodipodi.sourceforge.net/DTD/sodipodi-0.dtd"
   xmlns="http://www.w3.org/2000/svg"
   xmlns:svg="http://www.w3.org/2000/svg"><sodipodi:namedview
     id="namedview7"
     pagecolor="#ffffff"
     bordercolor="#000000"
     borderopacity="0.25"
     inkscape:showpageshadow="2"
     inkscape:pageopacity="0.0"
     inkscape:pagecheckerboard="0"
     inkscape:deskcolor="#d1d1d1"
     inkscape:document-units="mm"
     showgrid="false"
     inkscape:zoom="11.816274"
     inkscape:cx="371.98698"
     inkscape:cy="409.51996"
     inkscape:window-width="1920"
     inkscape:window-height="1009"
     inkscape:window-x="-8"
     inkscape:window-y="121"
     inkscape:window-maximized="1"
     inkscape:current-layer="g40" /><defs
     id="defs2"><style
       id="style9">
      .cls-1 {
        fill: none;
      }
    </style></defs><g
     inkscape:label="Layer 1"
     inkscape:groupmode="layer"
     id="layer1"
     transform="translate(-91.952044,-105.10176)"><g
       id="g40"
       transform="matrix(0.26458333,0,0,0.26458333,91.422879,104.32035)"><path
         d="m 24,19 c -246.35686,-275.5211 -123.178432,-137.76055 0,0 z"
         id="path15"
         sodipodi:nodetypes="cc" /><path
         d="m 28,15 h 2 V 5 C 30,3.897 29.1025,3 28,3 h -3 v 2 h 3 z"
         id="path17" /><circle
         cx="9"
         cy="13"
         r="2"
         id="circle19" /><circle
         cx="16"
         cy="13"
         r="2"
         id="circle21" /><circle
         cx="23"
         cy="13"
         r="2"
         id="circle23" /><path
         d="M 7,23 H 4 C 2.897,23 2,22.1025 2,21 V 5 C 2,3.897 2.897,3 4,3 H 7 V 5 H 4 v 16 h 3 z"
         id="path25" /><rect
         id="_Transparent_Rectangle_"
         data-name="&amp;lt;Transparent Rectangle&amp;gt;"
         class="cls-1"
         width="32"
         height="32"
         x="0"
         y="0" /><path
         d="m 25.009551,22.953339 h 3 c 1.103,0 2,-0.8975 2,-2 V 4.9533388 c 0,-1.103 -0.897,-2 -2,-2 h -3 v 2 h 3 V 20.953339 h -3 z"
         id="path25-4" /></g></g></svg>
